<?xml version="1.0" encoding="utf-8"?>
<svg version="1.1" id="Layer_1" xmlns="http://www.w3.org/2000/svg" xmlns:xlink="http://www.w3.org/1999/xlink" x="0px" y="0px"
	width="500" height="500" viewBox="0 0 500 500" enable-background="new 0 0 500 500" xml:space="preserve">
<g>
	<path fill="#BFEFEE" d="M273.3,66.8c-60,0-186.1,232.4-161.9,256.6c33.3,33.3,288,29.7,317.7,0C463.5,289,332.4,66.8,273.3,66.8z"
		/>
	<path fill="#FFFFFF" d="M112.1,291.3c-4.4,16-5.1,27.6-0.6,32.1c33.3,33.3,288,29.7,317.7,0c6.4-6.4,7-19.2,3.6-35.8
		c-31.3-11.1-91.3-28.8-153.8-28.8C224.6,258.8,157.4,276.8,112.1,291.3z"/>
	<path fill="#0E0F4B" d="M101,470.4l67,22l12.2-33.5l-32.5-12.5l-3.8,7.2l-10-2.2c-12.3-2.7-26.1,4.1-31.3,15.4L101,470.4z"/>
	<path fill="#FFC3B0" d="M164.7,208.9l62.4-25.9c0,0,22.1,23.8-11.1,38.7s-42.1,8.3-42.1,8.3L164.7,208.9z"/>
	<path fill="#FFFFFF" d="M221.5,169.5c11.2-11.4,10-46.1,26.5-44.8c25.6,2,27,48.6,4.1,77.8C231.1,216.1,205.2,197,221.5,169.5z"/>
	<path fill="#0E0F4B" d="M420.5,500l34.7-66.9l-33.7-14.8l-18.7,35.2l8.1,2.5l-3.4,7.9c-4.7,11.7-0.4,26.6,9.7,33.8L420.5,500z"/>
	<path fill="#00B4A3" d="M190,190.6l11.4,25.8c1.1,2.5,0.1,5.3-2.1,6.3c-9.9,4.5-35,15.2-44.9,12.1c-6.2-2-15.2-10.3-14.5-16.8
		c0.7-6.9,22.1-14.3,22.1-14.3l0,0c-1.9-2.3-2.8-8,0-9.1l22-6.6C186.2,186.9,188.9,188.1,190,190.6z"/>
	<path fill="#0E0F4B" d="M77,16.4c-8.8,4-12.6,14.4-8.4,23.1L120.1,147c3.6,7.5,8.7,14.2,14.9,19.8l1.4,1.3
		c6.2,5.6,11.2,12.3,14.9,19.8l29.8,61.2c1.7,3.5,5.9,5,9.4,3.3h0c3.5-1.7,5-5.9,3.3-9.4l-29.3-60.2c-4-8.2-6.2-17.1-6.6-26.2v0
		c-0.4-9.1-2.6-18-6.6-26.2l-51.8-106C95.5,16.2,85.5,12.6,77,16.4L77,16.4z"/>
	<path fill="#0E0F4B" d="M433.3,423.2l-26.2,40.4c0,0-84.9-51-104.9-88.8c-19.2-36.1-20.5-78.9-26.3-131.2l80.7-11.1
		c10.1,61.5-8.8,99.4,10.1,126.1C398,403.1,433.3,423.2,433.3,423.2z"/>
	<path fill="#0E0F4B" d="M178,464.6l-37.3-9.1c0,0,13.9-90.5,29.3-127.1c14.1-33.7,89.7-79.7,89.7-79.7l64.8,41.1
		c0,0-81.8,31.3-99,63.8C217.7,368.2,178,464.6,178,464.6z"/>
	<path fill="#00B4A3" d="M265.6,112.3c0,0-24.3,9.9-29.5,26.8c-5.7,18.5-3.8,53.2,0.9,115.4c-1.3,14.7,130.8-2.1,129.8-23
		c-20-55.4-20.7-100.2-37-113.7c-11.3-9.4-34.9-10.9-34.9-10.9S274.3,119,265.6,112.3z"/>
	<path fill="#FFC3B0" d="M193.9,210.7l92.3-22.2c0,0,18.8,26.5-16,37s-69.8,7.4-69.8,7.4L193.9,210.7z"/>
	<path fill="#FFFFFF" d="M271.8,185.1c12.6-9.9,26.5-55.2,42.6-51.9c25.1,5.2,9.9,62.5-16.5,88.5
		C275.3,232.5,252.1,210.3,271.8,185.1z"/>
	<path fill="#00B4A3" d="M208.1,206.7l3.5,28c0.3,2.7-1.4,5.1-3.9,5.4c-10.7,1.5-37.8,4.5-46.5-1.3c-5.4-3.7-11.6-14.2-9.1-20.3
		c2.6-6.4,25.3-7.4,25.3-7.4l0,0c-1.1-2.8-0.4-8.4,2.6-8.8l22.9,0C205.5,202,207.8,204,208.1,206.7z"/>
	<path fill="#FFC3B0" d="M261.2,103.4l4.1,9.9c0,0-9.9,8.9,0.3,10.9c11.8,2.4,31.1-7.1,30.6-17.9l-5.1-0.2l-10.1-29.9L261.2,103.4z"
		/>
	<path fill="#0E0F4B" d="M260.4,105.5c0,0,4.5,6.8,13.4,3.1c8.9-3.7,10-30.1,10-30.1L260.4,105.5z"/>
	<path fill="#0E0F4B" d="M196.5,69.1c8.1,25.6,21,35.4,36.1,37.8l-23.3-50L196.5,69.1z"/>
	<path fill="#FFC3B0" d="M286.9,76.6c-2.9-17.7-9.9-27.8-21.3-45.4c-46.4,17.5-68.1,8.9-63.8,28.7c0,0,9.2,40.4,29,50.1
		c10.5,5.1,25.7,5.4,33.5,0.2C282.3,98.4,286.9,76.6,286.9,76.6z"/>
	<path fill="#0E0F4B" d="M194.7,52L185,72.4c-0.5,1.3,0.6,2.6,2,2.4c29-5.6,57.8-13.8,73.8-23.3c0.9-0.5,2-0.2,2.5,0.7
		c3.1,6.4,14.2,27.9,22.3,29c4.9,0.7,15.5-4.8,17.3-9.4c6.1-16.4-13.7-58.2-29.1-66.6c-16.4-8.9-54.8-7.3-70.9,11.9
		c-11.7,14-8.8,30.8-8.1,33.8C194.9,51.3,194.9,51.7,194.7,52z"/>
	<path fill="#00B4A3" d="M155.7,377.1c-8.7,37.8-15,78.4-15,78.4l37.3,9.1c0,0,16.3-39.5,30-71.7L155.7,377.1z"/>
	<path fill="#00B4A3" d="M339.7,415.8c30.8,25.8,67.4,47.8,67.4,47.8l26.2-40.4c0,0-27-15.4-54.6-48.9L339.7,415.8z"/>
	<circle fill="#00B4A3" cx="287.5" cy="60.5" r="8.6"/>
	<circle fill="#00B4A3" cx="69.5" cy="155.6" r="24.7"/>
	<path fill="#FFFFFF" d="M80.7,177.7c-4.2-14.5-2.3-27.7,5.8-40c-1-0.9-2.1-1.8-3.3-2.6c-8.9,13.4-11.1,28.2-6.4,44.2
		C78.2,178.8,79.5,178.3,80.7,177.7z"/>
	<path fill="#FFFFFF" d="M64,131.6c-1.4,0.3-2.7,0.7-4,1.3c3.5,14,0.8,27.2-8.3,39.9c1,1,2,1.9,3.1,2.8
		C64.8,161.6,67.8,146.9,64,131.6z"/>
</g>
</svg>
